<svg width="258.23369140625px" height="122.021240234375px" xmlns="http://www.w3.org/2000/svg" viewBox="120.883154296875 13.9893798828125 258.23369140625 122.021240234375" style="background: rgba(29, 63, 114, 0);" preserveAspectRatio="xMidYMid"><defs><filter id="editing-vr"><feFlood flood-color="#d8ebf9" flood-opacity="0.7" result="c1"></feFlood><feFlood flood-color="#71c2cc" flood-opacity="0.7" result="c3"></feFlood><feComposite operator="in" in="c1" in2="SourceAlpha" result="text-c1"></feComposite><feComposite operator="in" in="c3" in2="SourceAlpha" result="text-c3"></feComposite><feOffset in="text-c1" dx="-4" dy="-1" result="text1"></feOffset><feOffset in="text-c3" dx="4" dy="1" result="text3"></feOffset><feBlend in="SourceGraphic" in2="text1" mode="multiply" result="text4"></feBlend><feBlend in="text4" in2="text3" mode="multiply"></feBlend></filter></defs><g filter="url(#editing-vr)"><g transform="translate(166.21906089782715, 96.75218772888184)"><path d="M29.18 1.28L29.18 1.28L29.18 1.28Q20.99 1.28 20.22-10.37L20.22-10.37L9.22-10.37L9.22-10.37Q7.94-7.42 7.04-4.86L7.04-4.86L5.38 0L-3.58 0L16.58-42.24L30.34-42.24L33.02-11.14L33.02-11.14Q33.66-4.42 36.22-2.43L36.22-2.43L36.22-2.43Q34.37 1.28 29.18 1.28ZM14.72-23.17L11.20-15.04L20.03-15.04L19.26-31.49L19.26-33.22L14.72-23.17ZM59.07-22.46L59.07-22.46L59.07-22.46Q59.97-24.83 59.97-26.88L59.97-26.88L59.97-26.88Q59.97-30.66 56.90-30.66L56.90-30.66L56.90-30.66Q55.30-30.66 53.98-29.22L53.98-29.22L53.98-29.22Q52.67-27.78 52.67-25.98L52.67-25.98L52.67-25.98Q52.67-24.70 53.70-23.68L53.70-23.68L53.70-23.68Q55.17-22.27 58.94-19.97L58.94-19.97L58.94-19.97Q62.72-17.66 64.16-15.78L64.16-15.78L64.16-15.78Q65.60-13.89 65.60-11.30L65.60-11.30L65.60-11.30Q65.60-8.70 64.35-6.34L64.35-6.34L64.35-6.34Q63.10-3.97 60.86-2.30L60.86-2.30L60.86-2.30Q56.06 1.28 48.38 1.28L48.38 1.28L48.38 1.28Q44.22 1.28 41.02-0.90L41.02-0.90L41.02-0.90Q37.82-3.01 37.82-5.50L37.82-5.50L37.82-5.50Q37.82-8 39.65-9.47L39.65-9.47L39.65-9.47Q41.47-10.94 44.16-10.94L44.16-10.94L44.16-10.94Q46.85-10.94 48.51-9.92L48.51-9.92L48.51-9.92Q47.68-7.81 47.68-6.40L47.68-6.40L47.68-6.40Q47.68-2.18 51.26-2.18L51.26-2.18L51.26-2.18Q52.80-2.18 53.82-3.14L53.82-3.14L53.82-3.14Q54.85-4.10 54.85-5.76L54.85-5.76L54.85-5.76Q54.85-9.02 49.34-12.48L49.34-12.48L49.34-12.48Q44.86-15.42 43.84-16.58L43.84-16.58L43.84-16.58Q42.11-18.62 42.11-21.18L42.11-21.18L42.11-21.18Q42.11-23.74 43.33-26.18L43.33-26.18L43.33-26.18Q44.54-28.61 46.78-30.34L46.78-30.34L46.78-30.34Q51.46-33.92 59.58-33.92L59.58-33.92L59.58-33.92Q63.74-33.92 66.21-32.26L66.21-32.26L66.21-32.26Q68.67-30.59 68.67-27.78L68.67-27.78L68.67-27.78Q68.67-24.96 66.98-23.36L66.98-23.36L66.98-23.36Q65.28-21.76 62.21-21.76L62.21-21.76L62.21-21.76Q60.10-21.76 59.07-22.46ZM72.06-6.40L72.06-6.40L72.06-6.40Q72.06-8.13 72.96-12.48L72.96-12.48L76.35-29.76L72.58-29.76L72.83-31.68L72.83-31.68Q80.51-33.98 87.94-39.62L87.94-39.62L91.01-39.62L89.47-32.64L94.46-32.64L93.89-29.76L88.96-29.76L85.70-12.48L85.70-12.48Q84.86-8.51 84.86-7.17L84.86-7.17L84.86-7.17Q84.86-4.10 87.55-3.46L87.55-3.46L87.55-3.46Q86.91-1.28 84.61 0L84.61 0L84.61 0Q82.30 1.28 79.04 1.28L79.04 1.28L79.04 1.28Q75.78 1.28 73.92-0.77L73.92-0.77L73.92-0.77Q72.06-2.82 72.06-6.40ZM107.84 1.28L107.84 1.28L107.84 1.28Q93.76 1.28 93.76-11.97L93.76-11.97L93.76-11.97Q93.76-21.38 98.94-27.46L98.94-27.46L98.94-27.46Q104.45-33.92 113.98-33.92L113.98-33.92L113.98-33.92Q120.90-33.92 124.42-30.72L124.42-30.72L124.42-30.72Q127.94-27.52 127.94-20.80L127.94-20.80L127.94-20.80Q127.94-10.56 122.43-4.61L122.43-4.61L122.43-4.61Q117.06 1.28 107.84 1.28ZM109.50-26.56L109.50-26.56L109.50-26.56Q108.74-24.83 108.13-22.24L108.13-22.24L108.13-22.24Q107.52-19.65 106.75-15.55L106.75-15.55L106.75-15.55Q105.98-11.46 105.98-6.40L105.98-6.40L105.98-6.40Q105.98-4.74 106.53-3.65L106.53-3.65L106.53-3.65Q107.07-2.56 108.54-2.56L108.54-2.56L108.54-2.56Q110.02-2.56 110.94-3.26L110.94-3.26L110.94-3.26Q111.87-3.97 112.58-5.63L112.58-5.63L112.58-5.63Q113.86-8.58 114.88-14.05L114.88-14.05L114.88-14.05Q115.90-19.52 116-21.89L116-21.89L116-21.89Q116.10-24.26 116.10-26.02L116.10-26.02L116.10-26.02Q116.10-27.78 115.58-28.93L115.58-28.93L115.58-28.93Q115.07-30.08 113.63-30.08L113.63-30.08L113.63-30.08Q112.19-30.08 111.23-29.18L111.23-29.18L111.23-29.18Q110.27-28.29 109.50-26.56ZM158.78 1.28L158.78 1.28L158.78 1.28Q151.04 1.28 151.04-4.74L151.04-4.74L151.04-4.74Q151.10-6.40 151.62-9.22L151.62-9.22L152.77-15.10L152.77-15.10Q154.50-23.42 154.50-25.28L154.50-25.28L154.50-25.28Q154.50-28.99 152.32-28.99L152.32-28.99L152.32-28.99Q148.67-28.99 146.75-19.46L146.75-19.46L142.98 0L130.11 1.28L136.77-32.70L147.26-33.92L146.24-27.65L146.24-27.65Q149.25-33.92 158.46-33.92L158.46-33.92L158.46-33.92Q162.94-33.92 164.83-32.03L164.83-32.03L164.83-32.03Q166.72-30.14 166.72-25.92L166.72-25.92L166.72-25.92Q166.72-21.95 164.67-12.67L164.67-12.67L164.67-12.67Q163.71-8.51 163.71-6.94L163.71-6.94L163.71-6.94Q163.71-5.38 164.58-4.48L164.58-4.48L164.58-4.48Q165.44-3.58 166.72-3.46L166.72-3.46L166.72-3.46Q166.08-1.28 163.87 0L163.87 0L163.87 0Q161.66 1.28 158.78 1.28Z" fill="#5699d2"></path></g></g><style>text {
  font-size: 64px;
  font-family: Arial Black;
  dominant-baseline: central;
  text-anchor: middle;
}</style></svg>