<svg id="visual" viewBox="0 0 960 300" width="960" height="300" xmlns="http://www.w3.org/2000/svg" xmlns:xlink="http://www.w3.org/1999/xlink" version="1.1"><rect x="0" y="0" width="960" height="300" fill="#0a0a0a"></rect><path d="M0 212L17.8 205.3C35.7 198.7 71.3 185.3 106.8 187.7C142.3 190 177.7 208 213.2 210.2C248.7 212.3 284.3 198.7 320 198.3C355.7 198 391.3 211 426.8 210.8C462.3 210.7 497.7 197.3 533.2 193.7C568.7 190 604.3 196 640 190.5C675.7 185 711.3 168 746.8 170.7C782.3 173.3 817.7 195.7 853.2 202.8C888.7 210 924.3 202 942.2 198L960 194L960 0L942.2 0C924.3 0 888.7 0 853.2 0C817.7 0 782.3 0 746.8 0C711.3 0 675.7 0 640 0C604.3 0 568.7 0 533.2 0C497.7 0 462.3 0 426.8 0C391.3 0 355.7 0 320 0C284.3 0 248.7 0 213.2 0C177.7 0 142.3 0 106.8 0C71.3 0 35.7 0 17.8 0L0 0Z" fill="#2e2e2e"></path><path d="M0 109L17.8 107.2C35.7 105.3 71.3 101.7 106.8 107.8C142.3 114 177.7 130 213.2 138.7C248.7 147.3 284.3 148.7 320 149.3C355.7 150 391.3 150 426.8 152C462.3 154 497.7 158 533.2 150.7C568.7 143.3 604.3 124.7 640 124.3C675.7 124 711.3 142 746.8 150C782.3 158 817.7 156 853.2 147.8C888.7 139.7 924.3 125.3 942.2 118.2L960 111L960 0L942.2 0C924.3 0 888.7 0 853.2 0C817.7 0 782.3 0 746.8 0C711.3 0 675.7 0 640 0C604.3 0 568.7 0 533.2 0C497.7 0 462.3 0 426.8 0C391.3 0 355.7 0 320 0C284.3 0 248.7 0 213.2 0C177.7 0 142.3 0 106.8 0C71.3 0 35.7 0 17.8 0L0 0Z" fill="#1c1c1c"></path><path d="M0 62L17.8 63.8C35.7 65.7 71.3 69.3 106.8 70.5C142.3 71.7 177.7 70.3 213.2 72C248.7 73.7 284.3 78.3 320 80.5C355.7 82.7 391.3 82.3 426.8 78.3C462.3 74.3 497.7 66.7 533.2 61.7C568.7 56.7 604.3 54.3 640 56.8C675.7 59.3 711.3 66.7 746.8 66.2C782.3 65.7 817.7 57.3 853.2 56.8C888.7 56.3 924.3 63.7 942.2 67.3L960 71L960 0L942.2 0C924.3 0 888.7 0 853.2 0C817.7 0 782.3 0 746.8 0C711.3 0 675.7 0 640 0C604.3 0 568.7 0 533.2 0C497.7 0 462.3 0 426.8 0C391.3 0 355.7 0 320 0C284.3 0 248.7 0 213.2 0C177.7 0 142.3 0 106.8 0C71.3 0 35.7 0 17.8 0L0 0Z" fill="#0a0a0a"></path></svg>