<?xml version="1.0" encoding="utf-8"?>
<svg version="1.1" id="Layer_1" xmlns="http://www.w3.org/2000/svg" x="0px" y="0px" width="100%" viewBox="0 0 1419 1419" enable-background="new 0 0 1419 1419">
  <path opacity="1.000000" stroke="none" d="M 754.228 1.381 C 761.127 1.701 767.045 2.56 773.15 3.163 C 781.127 3.95 788.691 4.982 796.62 6.089 C 811.368 8.148 826.104 10.383 840.746 13.084 C 853.231 15.387 865.576 18.447 877.984 21.403 C 877.986 21.635 878.04 22.096 877.867 22.382 C 877.102 23.247 876.597 23.975 875.905 24.385 C 865.499 30.548 855.113 36.747 844.627 42.771 C 838.476 46.305 831.632 48.845 826.006 53.046 C 806.298 67.766 786.836 82.825 767.584 98.139 C 758.107 105.677 748.599 113.407 740.396 122.249 C 733.24 129.963 727.912 139.369 721.737 147.999 C 720.676 149.483 719.638 151.139 718.193 152.147 C 716.716 153.176 714.751 153.505 713 154.14 C 713.074 152.178 712.475 149.835 713.335 148.321 C 717.355 141.239 721.246 133.98 726.172 127.54 C 735.348 115.544 745.161 104.032 754.808 92.399 C 759.159 87.152 761.091 81.51 759.358 74.929 C 753.346 75.968 747.585 75.998 742.695 78.076 C 737.633 80.228 733.566 84.609 728.791 87.578 C 722.159 91.702 716.077 96.274 710.486 101.868 C 695.439 116.924 679.796 131.383 664.464 146.156 C 662.218 148.321 660.211 150.946 656.959 148.212 C 653.914 145.653 651.385 142.725 654.703 138.479 C 656.432 136.267 657.948 133.885 659.493 131.535 C 661.783 128.051 664.426 124.6 661.407 119.923 C 655.949 120.437 650.154 118.386 645.597 124.194 C 640.594 130.57 634.828 136.385 629.081 142.131 C 622.646 148.564 617.501 155.582 614.254 164.268 C 612.577 168.753 608.643 172.39 605.752 176.426 C 603.64 179.373 601.419 182.257 599.502 185.328 C 595.637 191.521 597.48 198.617 596.484 205.265 C 595.653 210.813 597.055 214.415 601.981 217.253 C 605.083 219.04 605.595 221.972 602.159 224.458 C 599.602 226.308 596.955 228.043 594.479 229.995 C 585.913 236.748 576.793 242.951 569.062 250.561 C 562.378 257.139 553.967 262.193 549.477 270.98 C 548.741 272.422 546.653 273.169 545.199 274.249 C 543.745 275.329 541.967 276.167 540.907 277.552 C 523.918 299.751 501.954 317.569 485.797 340.551 C 479.609 349.352 471.519 356.798 465.045 365.423 C 458.738 373.826 451.666 381.984 450.066 393.086 C 449.624 396.154 448.707 399.333 447.225 402.032 C 444.547 406.909 444.877 411.25 447.388 416.095 C 450.49 422.082 455.381 424.805 464.035 424.322 C 470.524 423.96 471.552 422.711 474.424 415.027 C 475.307 412.664 477.535 410.184 479.793 409.084 C 484.379 406.849 489.791 406.193 494.176 403.686 C 506.827 396.456 517.835 387.371 526.515 375.292 C 532.468 367.008 539.494 359.287 547.035 352.404 C 556.82 343.472 567.586 335.613 577.944 327.311 C 582.003 324.058 586.389 324.209 590.432 326.976 C 596.268 330.97 600.827 335.872 599.83 343.852 C 599.522 346.314 599.696 348.844 599.747 351.34 C 600.083 367.832 612.09 378.885 628.351 378.081 C 632.073 377.898 635.851 378.941 639.608 379.376 C 641.899 379.641 644.219 380.133 646.493 379.989 C 656.062 379.383 665.609 378.182 675.182 377.97 C 682.563 377.806 689.205 376.212 695.63 372.564 C 700.309 369.906 705.443 367.847 712.149 370.019 C 707.785 374.926 704.236 379.527 700.06 383.463 C 694.336 388.858 690.266 395.77 683.206 400.025 C 676.125 404.294 669.994 410.115 663.032 414.615 C 657.355 418.283 651.272 421.517 645.001 424.024 C 635.765 427.717 626.121 430.376 616.795 433.863 C 599.527 440.318 582.273 446.831 565.19 453.758 C 555.523 457.677 546.119 462.287 536.76 466.916 C 527.385 471.552 519.853 478.517 512.929 486.317 C 511.371 488.072 507.951 488.176 505.388 489.04 C 504.934 486.895 504.085 484.746 504.102 482.605 C 504.146 476.947 502.56 472.479 497.833 468.77 C 485.788 459.319 471.086 457.702 457.02 454.141 C 456.229 453.94 455.361 453.996 454.529 454.003 C 450.771 454.036 446.999 453.917 443.26 454.203 C 440.68 454.401 437.889 454.667 435.646 455.8 C 431.822 457.732 428.798 457.299 425.596 454.634 C 422.393 451.969 412.293 452.159 409.527 454.524 C 407.291 456.436 404.885 458.15 402.553 459.95 C 397.573 463.794 391.879 466.997 387.745 471.6 C 374.766 486.052 362.137 500.837 349.82 515.86 C 337.014 531.479 327.549 549.312 317.487 566.726 C 311.414 577.234 307.21 588.357 306.613 600.583 C 306.265 607.714 306.122 614.869 306.246 622.006 C 306.38 629.803 311.22 635.604 317.971 636.682 C 325.859 637.941 335.582 633.532 337.756 627.163 C 340.354 619.556 342.336 611.741 344.706 604.054 C 345.282 602.187 346.301 600.45 347.176 598.683 C 348.839 595.323 350.804 592.087 352.176 588.614 C 354.351 583.106 358.806 581.969 362.378 586.526 C 366.255 591.474 370.238 596.415 368.726 603.587 C 367.98 607.126 368.138 610.868 368.01 614.522 C 367.866 618.63 370.362 620.519 374.377 619.696 C 380.63 618.413 385.236 615.345 387.93 609.242 C 389.074 606.651 391.569 604.656 393.45 602.391 C 394.186 602.714 394.921 603.037 395.657 603.361 C 395.232 606.265 394.991 609.214 394.308 612.056 C 393.94 613.591 392.19 614.921 392.138 616.382 C 391.897 623.156 392.031 629.942 392.031 637.486 C 396.985 637.108 401.898 636.842 406.785 636.325 C 410.567 635.925 413.749 636.499 415.716 640.175 C 418.381 645.157 424.967 645.981 428.395 641.361 C 432.41 635.952 435.91 630.152 439.458 624.413 C 440.199 623.214 440.034 621.492 440.532 620.098 C 441.829 616.462 443.262 612.873 444.641 609.265 C 445.314 609.359 445.986 609.453 446.659 609.547 C 447.172 614.684 447.685 619.821 448.228 625.258 C 455.126 625.88 461.782 625.786 467.678 622.135 C 482.217 613.131 496.527 603.757 511.125 594.85 C 513.713 593.271 517.349 592.322 520.311 592.675 C 526.125 593.368 531.756 595.457 537.55 596.472 C 548.878 598.457 560.368 599.627 571.595 602.045 C 579.538 603.756 587.205 606.83 594.906 609.548 C 600.303 611.453 605.55 613.784 610.863 615.928 C 616.361 618.146 622.465 619.486 627.235 622.765 C 638.553 630.545 649.795 638.619 660.043 647.726 C 673.576 659.754 686.235 672.777 699.058 685.585 C 705.062 691.582 710.95 697.776 716.214 704.417 C 725.494 716.125 735.55 727.501 742.924 740.367 C 753.432 758.703 762.605 777.923 770.865 797.394 C 778.102 814.453 783.942 832.187 789.202 849.977 C 794.288 867.178 798.95 884.653 801.786 902.331 C 805.088 922.918 806.4 943.883 800.665 964.465 C 795.047 984.631 789.317 1004.768 783.397 1024.847 C 782.289 1028.604 780.662 1032.525 778.231 1035.525 C 765.447 1051.3 752.581 1067.072 735.616 1078.714 C 732.406 1080.917 728.159 1081.816 725.369 1084.381 C 719.582 1089.702 712.586 1090.924 705.363 1092.383 C 696.594 1094.155 690.592 1090.652 685.739 1083.848 C 681.876 1078.432 677.927 1073.077 673.922 1067.765 C 670.981 1063.866 666.965 1063.449 662.687 1064.94 C 656.616 1067.057 653.073 1073.028 653.533 1079.426 C 654.186 1088.517 654.421 1097.644 655.269 1106.715 C 655.58 1110.043 656.218 1114.066 658.273 1116.383 C 667.931 1127.277 673.23 1139.336 671.331 1154.174 C 670.584 1160.006 672.268 1165.377 676.291 1169.893 C 677.276 1170.999 678.099 1172.302 678.767 1173.629 C 687.324 1190.633 698.226 1206.042 710.445 1220.579 C 730.787 1244.779 757.504 1261.545 781.434 1281.558 C 786.09 1285.452 791.301 1288.298 797.588 1288.684 C 807.868 1289.316 818.136 1290.214 828.423 1290.674 C 841.026 1291.237 840.96 1291.035 840.629 1278.575 C 840.584 1276.883 842.315 1274.018 843.778 1273.59 C 854.733 1270.385 866.041 1268.282 876.822 1264.612 C 888.893 1260.503 900.746 1255.574 912.279 1250.122 C 920.946 1246.025 928.971 1240.562 937.256 1235.663 C 942.832 1232.366 948.614 1229.338 953.834 1225.543 C 958.027 1222.495 958.362 1217.512 955.573 1213.58 C 951.54 1207.895 946.822 1203.449 939.045 1205.017 C 934.878 1205.858 930.712 1206.721 926.588 1207.746 C 924.015 1208.385 921.464 1210.12 919.008 1209.94 C 916.595 1209.763 914.315 1207.785 911.977 1206.598 C 913.375 1204.82 914.427 1202.488 916.232 1201.364 C 923.276 1196.979 931.041 1193.622 937.63 1188.672 C 945.982 1182.398 953.612 1175.12 961.228 1167.929 C 964.816 1164.541 967.909 1160.534 970.751 1156.475 C 974.736 1150.784 971.176 1141.104 964.989 1141.236 C 953.027 1141.492 942.992 1135.385 932.19 1132.029 C 912.903 1126.035 901.955 1110.634 892.678 1093.906 C 891.859 1092.43 891.694 1090.336 891.883 1088.601 C 892.78 1080.37 893.316 1072.035 895.078 1063.977 C 898.23 1049.563 899.943 1034.777 905.98 1021.037 C 907.665 1017.203 907.788 1012.684 908.638 1008.481 C 909.253 1005.444 909.611 1002.321 910.564 999.392 C 913.233 991.195 918.016 983.194 918.528 974.903 C 919.274 962.813 924.25 952.43 928.046 941.56 C 931.726 931.02 939.312 927.253 949.878 929.289 C 955.731 930.417 956.807 931.992 955.651 937.829 C 954.339 944.462 952.191 951.049 951.846 957.73 C 951.159 971.031 951.567 984.386 951.317 997.715 C 951.081 1010.333 956.056 1021.333 961.91 1031.96 C 967.224 1041.606 975.587 1048.676 984.29 1055.061 C 988.701 1058.297 994.048 1061.512 999.265 1062.088 C 1006.184 1062.851 1013.04 1063.836 1019.873 1065.071 C 1022.607 1065.565 1025.239 1066.686 1027.98 1067.075 C 1034.121 1067.947 1040.355 1069.399 1046.45 1069.014 C 1053.142 1068.591 1059.674 1066.07 1066.365 1065.047 C 1070.314 1064.443 1074.718 1066.321 1077.884 1062.233 C 1078.216 1061.803 1079.691 1062.344 1080.625 1062.279 C 1082.993 1062.115 1085.382 1062.018 1087.712 1061.609 C 1091.826 1060.887 1095.882 1059.811 1100.006 1059.166 C 1102.001 1058.853 1104.205 1059.623 1106.128 1059.148 C 1123.839 1054.77 1141.513 1050.24 1159.184 1045.703 C 1160.612 1045.336 1161.91 1044.492 1163.318 1044.02 C 1166.324 1043.013 1169.36 1041.301 1172.388 1041.292 C 1186.257 1041.249 1183.593 1041.595 1184.064 1029.801 C 1184.077 1029.469 1184.276 1029.047 1184.137 1028.821 C 1183.366 1027.568 1182.735 1025.549 1181.663 1025.263 C 1166.495 1021.214 1154.4 1011.694 1141.756 1003.155 C 1137.006 999.947 1132.688 995.81 1127.536 993.548 C 1118.277 989.484 1111.62 984.013 1111.082 973.185 C 1110.991 971.369 1110.551 969.57 1110.289 967.761 C 1108.753 957.173 1109.854 947.154 1116.725 938.416 C 1120.404 933.739 1123.891 928.879 1127.907 924.509 C 1131.591 920.5 1135.572 916.629 1139.954 913.424 C 1147.464 907.93 1155.313 902.884 1163.168 897.882 C 1167.891 894.875 1172.799 892.117 1177.805 889.607 C 1181.505 887.752 1185.464 886.388 1189.365 884.963 C 1200.442 880.917 1211.364 876.29 1222.695 873.143 C 1234.063 869.985 1246.084 869.13 1257.392 865.81 C 1269.522 862.248 1281.644 862.927 1293.909 862.706 C 1305.08 862.505 1316.778 864.9 1327.04 857.808 C 1327.84 857.255 1329.583 857.861 1330.821 858.182 C 1337.109 859.813 1343.291 862.352 1349.67 863.001 C 1357.37 863.785 1365.231 862.954 1373.022 862.894 C 1376.482 862.868 1380.038 862.537 1383.381 863.197 C 1388.867 864.282 1394.215 866.062 1400.163 867.698 C 1405.66 850.122 1368.802 978.783 1352.358 1012.881 C 1341.48 1035.438 1329.559 1057.572 1316.762 1079.097 C 1305.825 1097.494 1293.264 1114.959 1280.871 1132.446 C 1272.897 1143.696 1264.127 1154.406 1255.334 1165.044 C 1249.606 1171.975 1243.197 1178.342 1237.032 1184.582 C 1236.313 1179.844 1233.901 1182.664 1232.314 1183.197 C 1220.82 1187.056 1209.432 1191.241 1197.875 1194.9 C 1187.728 1198.112 1177.421 1200.829 1167.143 1203.614 C 1165.743 1203.994 1163.237 1204.052 1162.757 1203.298 C 1161.724 1201.672 1161.034 1199.304 1161.369 1197.451 C 1161.949 1194.243 1163.098 1191.034 1164.578 1188.115 C 1167.17 1183.004 1170.259 1178.146 1173.005 1173.109 C 1174.159 1170.991 1175.355 1168.771 1175.874 1166.451 C 1178.183 1156.128 1180.432 1145.785 1182.357 1135.385 C 1183.971 1126.664 1187.068 1117.432 1179.779 1109.82 C 1174.184 1103.977 1168.188 1097.659 1159.55 1097.184 C 1150.188 1096.669 1140.747 1097.607 1131.34 1097.892 C 1127.036 1098.022 1122.492 1097.261 1118.475 1098.39 C 1110.395 1100.661 1102.31 1103.345 1094.764 1106.975 C 1085.361 1111.498 1076.535 1117.212 1067.391 1122.288 C 1061.592 1125.507 1055.716 1128.596 1049.787 1131.57 C 1043.359 1134.795 1036.823 1137.806 1030.355 1140.953 C 1029.661 1141.291 1029.087 1141.89 1028.49 1142.406 C 1025.895 1144.642 1023.481 1147.132 1020.693 1149.09 C 1013.423 1154.195 1004.749 1157.388 999.49 1165.217 C 998.536 1166.637 996.59 1167.362 995.19 1168.515 C 991.319 1171.701 987.496 1174.944 983.653 1178.164 C 983.841 1178.651 984.029 1179.137 984.217 1179.624 C 988.166 1180.586 992.208 1181.281 996.031 1182.606 C 998.515 1183.467 1002.707 1185.344 1002.647 1186.6 C 1002.34 1193.05 1004.768 1200.027 998.435 1205.594 C 988.449 1214.372 978.833 1223.612 969.545 1233.128 C 962.958 1239.876 955.847 1245.463 947.356 1249.706 C 937.591 1254.586 928.556 1260.931 918.774 1265.772 C 912.348 1268.953 905.119 1270.482 898.332 1272.975 C 893.907 1274.6 889.419 1276.259 885.359 1278.598 C 882.592 1280.192 882.619 1283.101 885.33 1285.19 C 887.55 1286.901 889.976 1288.362 892.396 1289.791 C 897.544 1292.829 895.589 1297.827 895.411 1301.985 C 895.238 1306.063 891.22 1304.479 888.988 1304.504 C 869.158 1304.725 849.307 1305.222 829.499 1304.558 C 814.235 1304.047 798.978 1302.34 783.812 1300.417 C 778.547 1299.75 773.275 1297.387 768.508 1294.854 C 750.502 1285.287 735.711 1271.636 721.742 1257.007 C 705.437 1239.932 687.242 1224.602 674.043 1204.666 C 670.207 1198.873 665.601 1193.594 661.576 1187.919 C 660.629 1186.583 660.163 1184.575 660.236 1182.909 C 660.498 1176.892 659.679 1171.34 657.354 1165.568 C 655.028 1159.797 654.384 1153.247 653.649 1146.962 C 652.83 1139.957 652.149 1133.618 645.923 1128.404 C 638.738 1122.387 636.8 1113.078 636.327 1104.095 C 635.883 1095.672 637.095 1087.176 637.092 1078.712 C 637.089 1070.741 636.331 1062.773 636.186 1054.799 C 636.152 1052.939 636.892 1050.833 637.894 1049.224 C 643.013 1041.006 644.373 1031.798 644.759 1022.472 C 644.939 1018.115 646.84 1015.3 649.873 1012.8 C 651.149 1011.747 652.729 1011.021 653.866 1009.849 C 657.166 1006.447 660.061 1007.137 662.427 1010.706 C 664.612 1014.003 666.178 1017.719 668.441 1020.953 C 675.553 1031.115 681.849 1041.929 692.041 1049.628 C 696.208 1052.775 699.374 1057.418 703.797 1060.016 C 711.669 1064.641 726.392 1061.253 732.167 1054.686 C 734.839 1051.647 738.247 1048.937 741.845 1047.107 C 746.282 1044.85 749.377 1041.664 751.412 1037.381 C 757.822 1023.889 767.319 1011.658 768.367 995.938 C 768.47 994.385 769.786 992.949 770.297 991.38 C 771.833 986.662 774.265 981.957 774.514 977.152 C 775.151 964.86 773.961 952.591 775.272 940.165 C 775.961 933.629 775.813 926.385 775.318 919.646 C 774.725 911.573 771.449 903.662 769.043 895.77 C 767.271 889.958 764.389 884.423 763.159 878.524 C 761.519 870.66 761.284 862.514 759.943 854.574 C 757.343 839.178 754.156 823.864 747.691 809.556 C 744.631 802.786 740.338 796.584 736.831 790.004 C 728.875 775.072 721.489 759.82 713.07 745.157 C 704.103 729.539 692.708 715.704 680.515 702.356 C 663.488 683.719 641.612 673.836 618.834 665.133 C 614.032 663.299 608.654 662.54 604.341 659.954 C 596.284 655.123 587.82 657.641 579.517 657.212 C 578.757 657.173 577.981 657.744 577.191 657.951 C 574.461 658.664 571.649 659.136 569.002 660.075 C 563.626 661.982 556.882 662.831 553.491 666.615 C 550.963 669.436 548.118 672.424 545.499 675.365 C 542.72 678.485 539.29 680.925 534.629 680.013 C 527.312 678.583 522.023 681.991 516.787 686.647 C 511.408 691.429 511.265 698.454 508.109 704.139 C 507.658 704.951 508.643 706.621 509.084 707.852 C 509.639 709.403 510.512 710.861 510.913 712.444 C 515.756 731.573 520.53 750.719 525.357 769.852 C 525.596 770.8 526.226 771.643 526.545 772.58 C 529.387 780.918 532.395 789.207 534.951 797.633 C 536.639 803.2 534.159 805.979 528.508 805.666 C 522.695 805.343 516.878 804.782 511.065 804.804 C 504.398 804.829 499.044 802.32 493.667 798.503 C 479.053 788.127 463.787 778.654 449.374 768.016 C 443.096 763.383 437.684 757.219 432.965 750.934 C 428.651 745.189 425.868 738.306 422.273 732.003 C 420.886 729.57 419.611 726.623 417.442 725.164 C 408.505 719.152 399.12 715.036 387.614 716.32 C 382.522 716.889 377.029 714.033 371.757 712.593 C 371.112 712.417 370.495 711.459 370.215 710.729 C 367.742 704.281 363.161 699.612 357.471 696.053 C 354.98 694.496 352.06 692.852 349.258 692.703 C 339.231 692.17 329.361 692.998 319.276 689.861 C 310.246 687.052 303.485 682.628 298.199 675.212 C 292.328 666.975 286.243 658.883 280.632 650.474 C 279.122 648.213 278.003 644.863 278.434 642.305 C 279.366 636.778 281.147 631.341 283.064 626.043 C 288.144 612.005 294.342 598.307 298.438 583.999 C 301.608 572.925 306.253 562.895 312.274 553.283 C 315.891 547.51 319.308 541.613 322.923 535.839 C 327.219 528.976 331.637 522.189 335.989 515.36 C 337.309 513.291 338.713 511.261 339.857 509.096 C 342.382 504.32 344.014 498.854 347.358 494.773 C 354.833 485.651 362.693 476.747 371.191 468.582 C 386.907 453.483 403.025 438.789 419.343 424.342 C 424.262 419.987 426.185 415.263 425.537 409.063 C 425.332 407.099 424.537 404.915 425.111 403.2 C 428.254 393.813 431.301 384.382 437.451 376.302 C 440.133 372.778 442.016 368.648 444.277 364.802 C 447.378 359.526 449.741 353.583 453.749 349.118 C 464.401 337.249 475.951 326.192 486.786 314.48 C 494.783 305.836 502.234 296.687 509.893 287.732 C 515.51 281.166 521.364 274.774 526.588 267.906 C 534.614 257.355 542.104 246.397 549.998 235.743 C 553.398 231.154 555.174 226.399 554.953 220.535 C 554.515 208.886 554.701 197.215 554.543 185.555 C 554.461 179.546 556.074 174.53 559.951 169.541 C 567.446 159.894 573.898 149.443 580.932 139.43 C 584.369 134.537 587.881 129.651 591.81 125.157 C 603.912 111.312 616.269 97.69 628.45 83.913 C 633.517 78.182 638.391 72.281 643.35 66.455 C 650.018 58.619 656.471 50.588 663.401 42.991 C 673.26 32.181 683.487 21.705 693.499 11.033 C 694.499 9.968 695.393 8.627 695.837 7.253 C 696.786 4.315 696.867 2.326 692.38 2.66 C 678.929 3.661 733.223 1.131 719.773 1.59 C 719.797 1.36 739.781 1.401 739.984 1.014 M 509.59 785.403 C 510.274 784.765 511.663 783.895 511.541 783.522 C 508.39 773.934 505.375 764.284 501.727 754.881 C 497.109 742.979 491.753 731.364 487.105 719.473 C 484.361 712.455 480.992 706.168 474.103 702.471 C 470.443 700.507 466.721 698.659 463.007 696.796 C 453.711 692.135 444.721 690.168 437.077 699.816 C 436.781 700.19 436.249 700.368 435.857 700.676 C 432.758 703.114 431.181 706.132 431.768 710.229 C 433.455 721.993 439.553 731.995 446.409 740.938 C 453.729 750.487 463.355 758.253 471.863 766.907 C 482.086 777.305 495.068 782.036 509.59 785.403 M 562.728 370.236 C 555.847 375.738 549.428 381.985 541.99 386.586 C 526.519 396.156 514.313 409.336 501.27 421.595 C 491.08 431.173 489.729 442.32 496.85 452.516 C 499.808 456.751 503.051 457.095 506.666 453.322 C 508.843 451.05 510.65 448.428 512.753 446.079 C 519.264 438.803 525.17 431.735 536.898 431.743 C 544.839 431.748 552.367 427.006 555.27 417.964 C 556.738 413.391 558.83 409.023 560.51 404.513 C 561.766 401.141 562.293 397.389 564.063 394.34 C 567.423 388.553 571.257 383.011 575.262 377.643 C 577.337 374.862 580.687 372.977 582.511 370.087 C 583.49 368.536 583.281 364.959 582.105 363.678 C 580.885 362.349 577.419 361.723 575.689 362.49 C 571.336 364.421 567.407 367.309 562.728 370.236 M 740.384 3.518 C 735.214 3.518 730.045 3.518 724.691 3.518 C 726.444 9.642 734.174 15.084 739.194 14.325 C 742.736 13.79 747.842 7.411 747.649 3.14 C 745.546 3.266 743.445 3.392 740.384 3.518 Z" style="fill: rgb(255, 255, 255);"/>
  <path fill="#ffffff" opacity="1.000000" stroke="none" d=" M666.468628,1420.000000 C664.998047,1419.344604 664.037964,1418.197754 662.987793,1418.108276 C649.911560,1416.993774 636.725952,1416.711548 623.758911,1414.872437 C604.700134,1412.169189 585.666504,1408.976074 566.858398,1404.900879 C545.341309,1400.238647 523.891296,1395.040039 502.760498,1388.879517 C475.962952,1381.066895 449.822449,1371.256348 424.304138,1359.832764 C390.166718,1344.550781 357.292847,1327.033813 325.908142,1306.616089 C304.565613,1292.731323 283.761505,1278.174316 264.308136,1261.768188 C250.515747,1250.136230 237.038010,1238.124634 223.601501,1226.079956 C216.206955,1219.451172 208.798050,1212.762451 202.083038,1205.468018 C189.188751,1191.460938 176.191437,1177.476562 164.322922,1162.615356 C148.755142,1143.121948 133.535858,1123.268677 119.483955,1102.671631 C107.630913,1085.297607 97.448227,1066.762451 86.902527,1048.523682 C72.228455,1023.144775 60.356800,996.393250 49.640987,969.156860 C37.046719,937.145813 26.922613,904.305420 19.103329,870.817871 C15.102481,853.683411 11.979687,836.320435 9.111491,818.953125 C7.147298,807.059570 6.189476,794.992126 5.002639,782.980530 C4.131592,774.164978 3.642269,765.312134 2.902272,756.482605 C2.842097,755.764648 2.159381,755.098877 1.382969,754.704407 C1.000000,725.645752 1.000000,696.291565 1.000007,666.468628 C1.654287,665.162598 2.809995,664.368835 2.887405,663.481079 C3.998556,650.737793 4.325295,637.891479 6.113700,625.249939 C8.856848,605.859802 12.520733,586.597839 15.903676,567.300720 C21.753283,533.933228 31.503208,501.611572 43.072906,469.865845 C49.765533,451.502075 57.237019,433.383392 65.221741,415.540985 C72.181908,399.988037 79.878754,384.714996 88.119537,369.798615 C96.753571,354.170441 106.050346,338.873291 115.747261,323.877502 C125.123856,309.377136 134.978348,295.143005 145.367722,281.353088 C154.591690,269.110046 164.557861,257.390167 174.705231,245.888260 C186.599640,232.406113 198.505127,218.853973 211.390579,206.346725 C226.475800,191.704285 242.100571,177.509766 258.443726,164.299225 C277.842987,148.618378 297.775970,133.487595 318.377808,119.438408 C335.894043,107.493416 354.535583,97.156532 372.953796,86.586586 C398.230469,72.080650 424.794708,60.166374 451.917969,49.613651 C480.354797,38.549870 509.310150,28.912548 539.076721,22.032518 C557.922424,17.676659 576.831421,13.462806 595.882202,10.169187 C610.470764,7.647020 625.325562,6.664939 640.540833,5.188322 C641.019714,5.378782 640.960693,5.828051 640.599121,5.982915 C629.990417,7.433849 619.727478,8.616925 609.498718,10.044590 C549.460205,18.424368 491.568512,34.715424 435.872772,58.483658 C368.225342,87.352318 306.203735,125.362000 250.263611,173.374466 C204.475845,212.673309 164.523575,257.134796 130.059845,306.482880 C98.987114,350.975494 73.721703,398.679413 53.606682,449.158783 C24.998411,520.952332 8.546931,595.445618 4.479960,672.488831 C1.262649,733.436462 5.518798,794.003784 18.077583,853.896118 C29.779690,909.702942 47.780102,963.401550 72.353706,1014.772705 C95.913284,1064.024048 124.717178,1110.066406 158.904984,1152.797241 C216.682526,1225.012573 286.095551,1283.332642 366.748016,1328.278564 C447.079346,1373.045288 532.970459,1400.985596 624.285889,1412.458496 C686.197205,1420.237061 747.925415,1419.571289 809.661621,1410.813599 C874.056946,1401.678711 936.049988,1384.107910 995.512939,1357.854858 C1048.118774,1334.629028 1097.468018,1305.758789 1143.131592,1270.702148 C1144.237915,1269.852661 1145.763794,1269.549805 1147.093994,1268.991943 C1141.290649,1273.615601 1135.764893,1278.651001 1129.632202,1282.786377 C1110.262939,1295.847290 1091.134644,1309.366943 1071.026733,1321.203125 C1050.545532,1333.258423 1029.201904,1343.908081 1007.895630,1354.487793 C978.957703,1368.857300 948.696716,1380.075928 917.664734,1388.925415 C895.109558,1395.357788 872.259155,1400.863892 849.345093,1405.893555 C832.130859,1409.672119 814.666687,1412.473022 797.200073,1414.887085 C784.555237,1416.634888 771.722107,1417.010254 758.979431,1418.075806 C757.765381,1418.177246 756.597778,1418.835693 755.704346,1419.617676 C726.312439,1420.000000 696.624878,1420.000000 666.468628,1420.000000 z"/>
  <path class="svg-black" fill="#000000" opacity="1.000000" stroke="none" d=" M1418.920288,706.540405 C1418.922363,708.074890 1418.845459,709.147339 1418.885254,710.608887 C1418.795898,719.041565 1418.589600,727.084961 1418.432251,735.539551 C1417.974365,742.664062 1417.467651,749.377319 1416.929443,756.949341 C1416.301270,765.873840 1415.704590,773.939514 1414.993408,782.390076 C1413.607422,793.186523 1412.336182,803.598145 1411.064941,814.009766 C1407.857178,831.958130 1405.659790,850.122375 1400.163208,867.698425 C1394.215088,866.062378 1388.866943,864.281738 1383.381104,863.197266 C1380.037842,862.536560 1376.481812,862.867920 1373.022461,862.894409 C1365.230957,862.954102 1357.370483,863.784546 1349.670410,863.001221 C1343.291260,862.352234 1337.109131,859.812927 1330.821411,858.181946 C1329.582886,857.860718 1327.840454,857.255188 1327.040405,857.808105 C1316.777588,864.900330 1305.080322,862.504944 1293.908569,862.706360 C1281.643677,862.927490 1269.522095,862.248230 1257.391724,865.809692 C1246.084106,869.129578 1234.063477,869.985291 1222.694824,873.142883 C1211.364258,876.289795 1200.442139,880.917419 1189.365356,884.962769 C1185.463989,886.387634 1181.504883,887.751526 1177.804565,889.606812 C1172.799072,892.116577 1167.891235,894.874939 1163.167969,897.882324 C1155.313110,902.883728 1147.464355,907.930054 1139.954102,913.423767 C1135.572388,916.628967 1131.591309,920.499695 1127.906738,924.509094 C1123.890503,928.879395 1120.403564,933.739075 1116.725098,938.416260 C1109.853516,947.153503 1108.753418,957.172546 1110.288574,967.760803 C1110.550903,969.570129 1110.991455,971.368652 1111.081909,973.185425 C1111.620483,984.013245 1118.276978,989.483521 1127.536011,993.548462 C1132.688110,995.810425 1137.005737,999.947205 1141.756104,1003.155273 C1154.400269,1011.694214 1166.494507,1021.213684 1181.662964,1025.263184 C1182.734619,1025.549316 1183.366089,1027.567871 1184.136841,1028.821045 C1184.275757,1029.046875 1184.077026,1029.468628 1184.063843,1029.801147 C1183.592773,1041.595093 1186.256958,1041.249268 1172.387939,1041.291626 C1169.359985,1041.300781 1166.323730,1043.012573 1163.318115,1044.020020 C1161.909790,1044.492188 1160.611694,1045.335938 1159.184448,1045.702515 C1141.513184,1050.240479 1123.838989,1054.769531 1106.127930,1059.147827 C1104.205078,1059.623169 1102.000610,1058.853271 1100.005859,1059.165649 C1095.881592,1059.811401 1091.826416,1060.886597 1087.711914,1061.609009 C1085.381714,1062.018311 1082.992676,1062.114502 1080.625122,1062.279053 C1079.691040,1062.343994 1078.216064,1061.803467 1077.883667,1062.232788 C1074.717896,1066.320679 1070.314453,1064.443359 1066.364624,1065.047241 C1059.673706,1066.070190 1053.141724,1068.590942 1046.449951,1069.014038 C1040.355103,1069.399170 1034.120605,1067.947266 1027.980347,1067.075439 C1025.238647,1066.686157 1022.607361,1065.564819 1019.872620,1065.070679 C1013.040222,1063.835693 1006.183533,1062.851440 999.264526,1062.087769 C994.048157,1061.512085 988.701111,1058.296875 984.289612,1055.060547 C975.586853,1048.676147 967.223511,1041.606079 961.909851,1031.960327 C956.055725,1021.333496 951.080872,1010.332825 951.317322,997.714905 C951.567139,984.385986 951.158936,971.031311 951.845764,957.729553 C952.190735,951.048645 954.338745,944.462463 955.651367,937.829468 C956.806641,931.992065 955.731018,930.417175 949.878479,929.289368 C939.312134,927.253296 931.726318,931.020386 928.046082,941.559875 C924.250305,952.430298 919.273987,962.812500 918.527527,974.903442 C918.015686,983.194092 913.232666,991.195068 910.564331,999.392395 C909.611145,1002.320740 909.253235,1005.443909 908.638489,1008.481079 C907.787781,1012.683777 907.664978,1017.203064 905.980225,1021.037354 C899.942627,1034.777344 898.230103,1049.563110 895.078064,1063.976807 C893.315918,1072.034790 892.779785,1080.369751 891.882874,1088.600830 C891.693787,1090.335938 891.859070,1092.429932 892.677551,1093.905762 C901.954712,1110.633789 912.903381,1126.034912 932.190491,1132.028687 C942.992310,1135.385498 953.026978,1141.492310 964.989075,1141.235962 C971.175903,1141.103516 974.736145,1150.783813 970.751160,1156.474854 C967.908875,1160.533936 964.815552,1164.541016 961.227661,1167.928711 C953.612000,1175.119507 945.981750,1182.398438 937.629639,1188.672485 C931.041321,1193.621582 923.276001,1196.979492 916.232483,1201.364014 C914.427429,1202.487549 913.375244,1204.820435 911.977112,1206.597778 C914.315186,1207.785156 916.595215,1209.762573 919.007507,1209.939697 C921.463806,1210.119995 924.014526,1208.385010 926.587708,1207.745728 C930.711609,1206.721069 934.878052,1205.857910 939.044861,1205.017456 C946.822449,1203.448730 951.540100,1207.894775 955.572693,1213.579590 C958.362366,1217.511963 958.026855,1222.495483 953.833923,1225.543213 C948.613770,1229.337524 942.832092,1232.365845 937.256287,1235.662964 C928.971313,1240.562012 920.946411,1246.025024 912.278687,1250.122314 C900.746399,1255.573853 888.893005,1260.502563 876.822083,1264.611694 C866.040710,1268.281860 854.732971,1270.385010 843.777649,1273.590210 C842.314941,1274.017944 840.584229,1276.882935 840.629211,1278.575439 C840.960449,1291.035156 841.026428,1291.237183 828.423035,1290.673706 C818.135559,1290.213989 807.868286,1289.315796 797.587585,1288.684326 C791.301270,1288.298096 786.090393,1285.451904 781.433777,1281.557617 C757.503662,1261.544556 730.787231,1244.778564 710.445435,1220.578857 C698.225586,1206.041504 687.324402,1190.633057 678.767090,1173.629150 C678.098999,1172.301636 677.275940,1170.999146 676.290955,1169.893311 C672.268188,1165.377441 670.584167,1160.006104 671.330566,1154.173950 C673.229675,1139.335571 667.930603,1127.276733 658.272522,1116.383179 C656.217773,1114.065674 655.580261,1110.043335 655.268982,1106.714844 C654.420532,1097.643799 654.186157,1088.517456 653.532776,1079.425537 C653.072998,1073.028076 656.615662,1067.057129 662.687012,1064.940186 C666.965149,1063.448608 670.981201,1063.865601 673.921631,1067.765259 C677.926575,1073.076538 681.875977,1078.432129 685.738586,1083.847534 C690.592163,1090.651978 696.594299,1094.154663 705.362549,1092.383057 C712.586060,1090.923584 719.581604,1089.701904 725.368530,1084.381348 C728.158508,1081.816162 732.405518,1080.917114 735.615662,1078.714111 C752.580688,1067.071777 765.447388,1051.299683 778.230835,1035.524536 C780.661804,1032.524658 782.289062,1028.604492 783.397095,1024.846558 C789.317444,1004.767639 795.046753,984.631042 800.665283,964.465088 C806.399841,943.882629 805.088318,922.917603 801.785889,902.330505 C798.950195,884.652954 794.288025,867.177551 789.202209,849.976929 C783.942139,832.187073 778.101685,814.452637 770.865051,797.393921 C762.604980,777.922546 753.432129,758.703125 742.923645,740.367004 C735.550049,727.500916 725.493896,716.124512 716.213989,704.417175 C710.949829,697.776062 705.061768,691.582397 699.057556,685.584839 C686.235474,672.776672 673.575867,659.753540 660.042908,647.726379 C649.794861,638.618652 638.553101,630.544800 627.235107,622.765137 C622.464783,619.486206 616.361206,618.146362 610.862549,615.927734 C605.549866,613.784241 600.303101,611.453491 594.906189,609.548279 C587.205139,606.829651 579.537598,603.755798 571.594788,602.045288 C560.367920,599.627441 548.878235,598.456787 537.550049,596.472290 C531.756165,595.457336 526.124573,593.367676 520.311157,592.674927 C517.348816,592.321899 513.712769,593.271240 511.124634,594.850342 C496.527374,603.756653 482.216766,613.131348 467.677673,622.135315 C461.782257,625.786316 455.125763,625.880310 448.228271,625.258362 C447.685211,619.820984 447.172150,614.683899 446.659088,609.546814 C445.986328,609.453064 445.313599,609.359253 444.640839,609.265442 C443.261932,612.873169 441.829010,616.461609 440.531586,620.098389 C440.034424,621.492065 440.199310,623.214050 439.458191,624.412842 C435.910095,630.151794 432.409668,635.951843 428.395294,641.361328 C424.967255,645.980591 418.380981,645.157288 415.715515,640.174622 C413.749359,636.499207 410.567291,635.925415 406.784851,636.325378 C401.898163,636.842102 396.984924,637.108276 392.031342,637.486267 C392.031342,629.942017 391.896545,623.155518 392.138123,616.382385 C392.190247,614.921448 393.939728,613.590820 394.308472,612.056274 C394.991486,609.213867 395.232300,606.265137 395.657288,603.360718 C394.921448,603.037354 394.185608,602.713989 393.449768,602.390625 C391.568970,604.656250 389.074219,606.650818 387.930359,609.241760 C385.235901,615.344788 380.629913,618.412659 374.376953,619.695557 C370.362061,620.519348 367.866150,618.630188 368.010071,614.522400 C368.138062,610.868042 367.980347,607.126465 368.726349,603.587219 C370.238129,596.414612 366.255371,591.474487 362.377563,586.526245 C358.805695,581.968506 354.351440,583.105896 352.175751,588.614014 C350.804077,592.086670 348.839355,595.323303 347.175751,598.683105 C346.300812,600.450134 345.281982,602.186951 344.706268,604.054016 C342.335785,611.741272 340.353729,619.556396 337.756378,627.163147 C335.581818,633.531677 325.858643,637.941040 317.971161,636.681946 C311.220093,635.604309 306.380493,629.802856 306.245667,622.006348 C306.122223,614.868652 306.265442,607.714355 306.613495,600.583130 C307.210144,588.357422 311.414459,577.233826 317.486664,566.725525 C327.549194,549.311829 337.014465,531.479492 349.820221,515.859741 C362.136780,500.836761 374.765839,486.052185 387.744598,471.600250 C391.878937,466.996674 397.573151,463.794159 402.552979,459.949738 C404.884766,458.149597 407.290680,456.436035 409.526855,454.524017 C412.292725,452.159119 422.392761,451.969330 425.595581,454.634125 C428.798492,457.298981 431.821747,457.732361 435.645599,455.800018 C437.888519,454.666626 440.679810,454.400848 443.259521,454.203186 C446.999420,453.916595 450.771027,454.035614 454.529297,454.003143 C455.360992,453.995972 456.228577,453.940002 457.020386,454.140503 C471.086212,457.701538 485.788025,459.319397 497.832825,468.770355 C502.559631,472.479248 504.145905,476.947388 504.101501,482.604919 C504.084686,484.746399 504.933807,486.894714 505.388214,489.039917 C507.951141,488.175842 511.370972,488.072388 512.929382,486.316681 C519.852783,478.517212 527.385437,471.552124 536.759827,466.915619 C546.119019,462.286591 555.523010,457.677399 565.190308,453.757538 C582.272827,446.831085 599.526611,440.317719 616.795044,433.862579 C626.120972,430.376434 635.765015,427.716980 645.001465,424.024048 C651.272034,421.516937 657.355408,418.282867 663.031799,414.614563 C669.994080,410.115356 676.124817,404.293701 683.206482,400.024841 C690.265564,395.769531 694.335510,388.858398 700.060364,383.462555 C704.236084,379.526825 707.784790,374.925995 712.149353,370.018677 C705.442932,367.847229 700.309448,369.905945 695.629578,372.563599 C689.205017,376.212036 682.563232,377.805878 675.181641,377.969757 C665.609192,378.182251 656.061707,379.383331 646.492737,379.989410 C644.219421,380.133423 641.899170,379.641052 639.608154,379.375763 C635.850891,378.940643 632.072510,377.897522 628.351013,378.081482 C612.089661,378.885223 600.082825,367.831573 599.747009,351.340149 C599.696167,348.843597 599.522461,346.313721 599.830017,343.852295 C600.827148,335.871643 596.267517,330.970276 590.432373,326.976471 C586.389465,324.209351 582.003357,324.058075 577.944092,327.311493 C567.585754,335.613434 556.820129,343.471832 547.035278,352.403564 C539.494263,359.287109 532.467896,367.008179 526.514771,375.292450 C517.834961,387.371002 506.827179,396.456024 494.176392,403.686096 C489.790649,406.192535 484.378662,406.848511 479.793152,409.083618 C477.535004,410.184265 475.307465,412.663818 474.424194,415.027008 C471.552002,422.711487 470.524017,423.959808 464.034882,424.322083 C455.381104,424.805206 450.490417,422.082031 447.388031,416.095428 C444.877289,411.250427 444.547363,406.908722 447.225250,402.031616 C448.706940,399.333038 449.624298,396.153625 450.066284,393.085815 C451.665649,381.984222 458.737915,373.825958 465.044525,365.423279 C471.518585,356.797516 479.608582,349.352295 485.796783,340.550568 C501.954163,317.569366 523.917725,299.751160 540.907104,277.551971 C541.967041,276.166931 543.745483,275.328857 545.199036,274.248840 C546.652954,273.168549 548.740784,272.421875 549.477295,270.980499 C553.966980,262.193207 562.377686,257.139221 569.061523,250.560867 C576.792908,242.951492 585.913330,236.747955 594.478577,229.994827 C596.954590,228.042633 599.601868,226.308289 602.159180,224.458252 C605.595337,221.972382 605.083191,219.040375 601.980652,217.252991 C597.054626,214.415054 595.653137,210.812515 596.484131,205.265335 C597.480103,198.616653 595.637024,191.520752 599.502075,185.327972 C601.418945,182.256653 603.639587,179.373428 605.751648,176.425751 C608.643494,172.389816 612.577148,168.752777 614.253906,164.267929 C617.501404,155.581863 622.645630,148.564468 629.080994,142.130722 C634.828186,136.384995 640.593750,130.570007 645.596863,124.193748 C650.153992,118.385925 655.948853,120.436577 661.406738,119.923401 C664.425659,124.600273 661.783020,128.051010 659.492554,131.534973 C657.947754,133.884598 656.431641,136.267029 654.703369,138.478989 C651.385437,142.725403 653.914185,145.653183 656.958862,148.212128 C660.211487,150.945847 662.217834,148.320755 664.464050,146.156357 C679.795898,131.382935 695.438843,116.923721 710.486084,101.868088 C716.076843,96.274239 722.158997,91.701584 728.791443,87.577766 C733.565735,84.609238 737.632690,80.227829 742.695007,78.076363 C747.585083,75.998077 753.345764,75.968491 759.358337,74.929329 C761.091492,81.510094 759.158691,87.152397 754.807800,92.399132 C745.161438,104.031631 735.347717,115.543602 726.171631,127.540283 C721.246033,133.979919 717.355225,141.239410 713.334900,148.320557 C712.474854,149.835373 713.073547,152.178497 713.000183,154.140045 C714.751343,153.504761 716.716248,153.176178 718.192810,152.146973 C719.638245,151.139450 720.676331,149.482651 721.737488,147.999435 C727.912170,139.369003 733.240112,129.962845 740.395996,122.249207 C748.598511,113.407349 758.106812,105.677399 767.584229,98.138733 C786.835754,82.825470 806.298462,67.765678 826.006409,53.046246 C831.631714,48.844803 838.475586,46.305134 844.627075,42.771019 C855.113098,36.746716 865.499329,30.548338 875.905090,24.385365 C876.597412,23.975340 877.101501,23.247488 878.293335,22.458899 C879.452515,22.173470 880.011475,22.096611 880.570435,22.019756 C880.570435,22.019760 880.652039,21.968239 880.682007,22.346500 C882.728760,23.474659 884.710815,24.340525 886.767761,24.956257 C904.259521,30.192251 921.927673,34.895294 939.235962,40.677200 C993.851868,58.921932 1045.006592,84.434128 1093.563477,115.277054 C1094.898071,116.124779 1096.565186,116.448891 1098.077271,117.017204 C1098.077271,117.017204 1098.013184,116.983299 1097.757568,117.273483 C1101.693970,120.049011 1105.885986,122.534363 1110.078003,125.019699 C1110.078003,125.019684 1110.013306,124.984337 1109.751465,125.284012 C1111.685303,126.728340 1113.881104,127.872978 1116.076782,129.017624 C1116.076782,129.017624 1116.012817,128.983765 1115.743164,129.298111 C1117.008789,130.415787 1118.544189,131.219101 1120.079590,132.022430 C1120.079590,132.022430 1120.009766,131.983994 1119.801514,132.343384 C1120.754761,133.141983 1121.916138,133.581207 1123.077637,134.020416 C1123.077637,134.020401 1123.013916,133.985229 1122.731934,134.293762 C1123.992798,135.408783 1125.535889,136.215256 1127.078857,137.021729 C1127.078857,137.021744 1127.014038,136.985184 1126.754272,137.275024 C1129.022217,139.049774 1131.550049,140.534683 1134.077759,142.019608 C1134.077759,142.019608 1134.013794,141.984528 1133.737061,142.296143 C1134.999634,143.412125 1136.538818,144.216461 1138.078125,145.020813 C1138.078125,145.020798 1138.013428,144.984879 1137.741699,145.302185 C1139.005249,146.418961 1140.540527,147.218430 1142.075928,148.017914 C1142.075928,148.017914 1142.009155,147.980331 1141.788086,148.351395 C1142.071777,148.831421 1142.576538,148.940369 1143.081421,149.049332 C1143.081421,149.049332 1143.007690,148.994522 1142.853760,149.355408 C1143.825684,150.150955 1144.951538,150.585587 1146.077271,151.020203 C1146.077271,151.020203 1146.009766,150.981247 1145.789307,151.349594 C1146.073120,151.828720 1146.577271,151.939514 1147.081543,152.050308 C1147.081543,152.050308 1147.006592,151.994476 1146.871948,152.355530 C1147.850586,153.151169 1148.963745,153.585739 1150.077026,154.020325 C1150.077026,154.020325 1150.009521,153.981613 1149.783936,154.373047 C1150.065796,154.857285 1150.573120,154.950073 1151.080444,155.042877 C1151.080444,155.042877 1151.011230,154.989944 1150.795898,155.341934 C1151.080811,155.814041 1151.581055,155.934158 1152.081421,156.054276 C1152.081421,156.054276 1152.004272,155.996567 1151.907227,156.361221 C1152.898926,157.156845 1153.987671,157.587830 1155.076416,158.018814 C1155.076416,158.018814 1155.009033,157.980820 1154.783569,158.376709 C1155.065308,158.862289 1155.572510,158.951981 1156.079712,159.041672 C1156.079712,159.041672 1156.010864,158.989807 1155.790039,159.351898 C1156.073364,159.826218 1156.577393,159.938461 1157.081543,160.050690 C1157.081543,160.050690 1157.009766,159.995071 1156.830933,160.325745 C1158.127563,161.444550 1159.602905,162.232697 1161.078369,163.020859 C1161.078369,163.020859 1161.010132,162.981018 1160.789795,163.347153 C1161.073486,163.825790 1161.577393,163.938309 1162.081421,164.050812 C1162.081421,164.050812 1162.010864,163.992462 1161.827271,164.310425 C1162.102539,164.773331 1162.561279,164.918259 1163.020142,165.063202 C1164.782104,166.595566 1166.543945,168.127930 1168.559570,170.191483 C1170.231934,171.487976 1171.650757,172.253296 1173.069458,173.018616 C1173.069458,173.018616 1173.007446,172.983917 1172.788086,173.376129 C1173.069580,173.858612 1173.570435,173.948883 1174.071289,174.039154 C1174.071289,174.039154 1174.008423,173.992096 1173.791016,174.368286 C1174.073364,174.843903 1174.573242,174.943344 1175.072998,175.042770 C1175.072998,175.042770 1175.008667,174.992676 1174.809692,175.344559 C1175.098633,175.814636 1175.586670,175.932816 1176.074585,176.050995 C1176.074585,176.050995 1176.005005,175.997391 1175.878296,176.337372 C1177.190308,177.457748 1178.629150,178.238144 1180.067871,179.018524 C1180.067871,179.018524 1180.007202,178.984680 1179.786865,179.376495 C1180.068115,179.858688 1180.569824,179.949081 1181.071533,180.039490 C1181.071533,180.039474 1181.008667,179.992050 1180.792603,180.353546 C1181.075806,180.825989 1181.574951,180.936905 1182.074219,181.047836 C1182.074219,181.047836 1182.006592,180.994095 1181.857666,181.344482 C1182.163940,181.813141 1182.619141,181.931442 1183.074463,182.049744 C1183.074463,182.049728 1183.005493,181.994644 1182.878540,182.339172 C1183.192505,182.806122 1183.633545,182.928558 1184.074463,183.050995 C1184.074463,183.050980 1184.005249,182.995026 1183.884888,183.325256 C1184.201050,183.789276 1184.637695,183.923080 1185.074219,184.056885 C1185.074219,184.056885 1185.003418,183.999512 1184.908936,184.288727 C1185.802734,185.415375 1186.791016,186.252792 1187.972412,187.437195 C1188.796509,187.862640 1189.427490,187.941101 1190.058350,188.019547 C1190.058350,188.019547 1190.003052,187.985519 1189.785889,188.379730 C1190.068726,188.861786 1190.568481,188.949631 1191.068359,189.037460 C1191.068359,189.037460 1191.007446,188.992615 1190.787109,189.379868 C1191.067993,189.857803 1191.569214,189.948486 1192.070435,190.039185 C1192.070435,190.039185 1192.007690,189.992294 1191.801514,190.376831 C1192.087158,190.854034 1192.578735,190.946686 1193.070435,191.039337 C1193.070435,191.039337 1193.007812,190.992416 1192.796021,191.372162 C1193.079956,191.848312 1193.575806,191.944733 1194.071533,192.041168 C1194.071533,192.041153 1194.007690,191.992584 1193.813232,192.361572 C1194.103271,192.835083 1194.587891,192.939575 1195.072510,193.044083 C1195.072510,193.044083 1195.007080,192.993301 1194.834717,193.353088 C1195.132690,193.824158 1195.602905,193.935425 1196.073242,194.046692 C1196.073242,194.046677 1196.006104,193.993973 1195.858887,194.350418 C1196.165649,194.820221 1196.619385,194.933578 1197.073242,195.046936 C1197.073242,195.046951 1197.006226,194.993973 1196.859253,195.341339 C1197.166138,195.809357 1197.619995,195.930023 1198.073853,196.050659 C1198.073853,196.050659 1198.005127,195.994888 1197.886475,196.325958 C1198.203247,196.789948 1198.638550,196.922867 1199.073975,197.055786 C1199.073975,197.055771 1198.998169,196.996582 1198.944336,197.327301 C1200.619507,198.777969 1202.348267,199.897934 1204.077148,201.017914 C1204.077148,201.017914 1204.009033,200.979752 1203.783203,201.376587 C1204.064941,201.862747 1204.572510,201.952072 1205.080078,202.041412 C1205.080078,202.041412 1205.010620,201.989563 1204.783936,202.381439 C1205.064819,202.862686 1205.572510,202.952042 1206.080078,203.041412 C1206.080078,203.041412 1206.010620,202.989563 1205.783936,203.381531 C1206.064941,203.862854 1206.572632,203.952209 1207.080322,204.041565 C1207.080322,204.041565 1207.010620,203.989532 1206.783936,204.381622 C1207.064941,204.863037 1207.572876,204.952377 1208.080688,205.041718 C1208.080688,205.041718 1208.010864,204.989426 1207.783691,205.381317 C1208.064575,205.862656 1208.572388,205.952103 1209.080322,206.041534 C1209.080322,206.041534 1209.010620,205.989532 1208.783936,206.381500 C1209.064819,206.862823 1209.572632,206.952179 1210.080322,207.041534 C1210.080322,207.041534 1210.010620,206.989532 1209.783936,207.381683 C1210.065063,207.863159 1210.572998,207.952484 1211.080811,208.041809 C1211.080811,208.041809 1211.010864,207.989395 1210.783447,208.379730 C1211.064453,208.860886 1211.572998,208.951691 1212.081543,209.042496 C1212.081543,209.042496 1212.010742,208.989273 1211.792480,209.380157 C1212.076294,209.861237 1212.578491,209.951431 1213.080566,210.041626 C1213.080566,210.041626 1213.010742,209.989441 1212.783813,210.381302 C1213.064575,210.862579 1213.572388,210.951981 1214.080078,211.041397 C1214.080078,211.041397 1214.010620,210.989563 1213.783936,211.381439 C1214.064819,211.862701 1214.572510,211.952057 1215.080078,212.041412 C1215.080078,212.041412 1215.010620,211.989532 1214.783936,212.381622 C1215.065186,212.863007 1215.572876,212.952332 1216.080688,213.041656 C1216.080688,213.041656 1216.010864,212.989395 1215.783936,213.381042 C1216.064453,213.862152 1216.572021,213.951614 1217.079590,214.041077 C1217.079590,214.041077 1217.010498,213.989777 1216.784180,214.381317 C1217.064819,214.862167 1217.571899,214.951492 1218.078979,215.040817 C1218.078979,215.040817 1218.010254,214.989929 1217.784180,215.381683 C1218.065308,215.862640 1218.572388,215.951828 1219.079468,216.041016 C1219.079468,216.041031 1219.010376,215.989807 1218.784180,216.381592 C1219.065186,216.862640 1219.572388,216.951904 1220.079712,217.041168 C1220.079712,217.041168 1220.020752,216.991623 1219.684082,217.215500 C1220.897583,218.957031 1222.447510,220.474686 1223.997559,221.992340 C1229.122314,227.618591 1234.418701,233.099487 1239.337036,238.900665 C1250.339844,251.878159 1261.269531,264.921875 1271.985962,278.135651 C1275.979736,283.059967 1279.296143,288.533691 1283.309448,294.217224 C1284.822632,295.799072 1285.947632,296.920685 1287.072632,298.042297 C1287.072632,298.042297 1287.004272,297.989380 1286.855957,298.375488 C1287.163940,298.854279 1287.620361,298.946930 1288.076660,299.039581 C1288.076660,299.039581 1288.018555,298.991058 1287.675781,299.259003 C1288.245972,300.366577 1289.158936,301.206238 1290.071899,302.045898 C1290.071899,302.045898 1290.012695,301.991302 1289.737427,302.287384 C1290.332153,303.405151 1291.202148,304.226807 1292.072144,305.048492 C1292.072144,305.048492 1292.010254,304.991486 1291.778564,305.307739 C1292.388550,306.431488 1293.230225,307.238953 1294.071899,308.046387 C1294.071899,308.046387 1294.013428,307.991486 1293.742310,308.264587 C1294.323730,309.390472 1295.176270,310.243225 1296.028687,311.096039 C1299.240234,315.806793 1302.451904,320.517548 1305.658936,325.898499 C1306.461426,327.395844 1307.268433,328.222992 1308.075439,329.050140 C1308.075439,329.050140 1308.013306,328.991302 1307.760986,329.282562 C1309.363892,332.062561 1311.219360,334.551331 1313.074829,337.040100 C1313.074829,337.040070 1313.013672,336.987213 1312.747803,337.274109 C1315.679077,342.387238 1318.876465,347.213440 1322.073853,352.039673 C1322.073853,352.039642 1322.014526,351.987610 1321.725098,352.265625 C1356.164551,412.413361 1382.520020,475.757782 1398.183105,543.194946 C1404.903931,572.131775 1408.878418,601.706421 1414.100586,630.991272 C1415.388794,647.051392 1416.676880,663.111450 1418.049561,679.576294 C1418.126099,681.408813 1418.118042,682.836731 1418.273438,684.662598 C1418.571655,692.066467 1418.706421,699.072449 1418.920288,706.540405 M897.294800,286.905457 C900.307251,282.521423 903.065308,277.932434 906.393005,273.802399 C911.112366,267.945160 912.832642,261.345703 912.764893,254.012192 C912.683411,245.188019 912.468994,236.348511 912.866821,227.540710 C913.351746,216.802200 910.375732,207.009247 904.944214,198.100693 C896.116516,183.621826 881.905701,175.025391 868.099426,166.125870 C867.057617,165.454361 865.535522,165.299423 864.235168,165.294159 C854.415649,165.254547 844.594971,165.258026 834.776672,165.394333 C833.165405,165.416702 831.448303,165.911072 829.976074,166.603836 C814.474976,173.897964 799.139282,181.388351 785.481018,192.034500 C773.613037,201.285278 761.123291,209.737457 748.936401,218.581284 C747.597595,219.552841 746.316406,220.667313 745.225891,221.906815 C739.221375,228.731979 732.377502,234.401581 724.054504,238.258911 C721.525513,239.431015 719.156250,241.099396 717.024841,242.907104 C716.099731,243.691696 715.278870,245.662552 715.645020,246.625015 C716.061340,247.719666 717.783325,248.764008 719.072632,248.964935 C720.612854,249.204987 722.486023,248.900406 723.885315,248.186005 C731.205444,244.448868 738.422668,240.510025 745.668945,236.628647 C746.104980,236.395081 746.499939,236.073303 746.884644,235.756805 C765.484253,220.453613 784.233887,205.327209 802.605286,189.754684 C810.422729,183.128159 819.106934,181.573273 828.680725,182.970688 C835.166626,183.917404 841.570862,185.411896 848.032227,186.543686 C851.554077,187.160614 855.253601,187.094604 858.627686,188.133469 C862.234985,189.244156 865.624084,191.160309 868.985779,192.954559 C882.955017,200.410370 891.208801,210.786499 892.217163,227.848831 C893.280334,245.838638 884.467590,261.440643 883.212891,278.639801 C883.146545,279.548737 882.378967,280.428009 881.868958,281.279755 C876.077026,290.952728 870.656921,300.882446 864.282959,310.156189 C861.687561,313.932190 856.640137,315.920715 853.352722,319.341766 C842.067932,331.085541 827.300476,333.921753 812.211609,335.917542 C802.478027,337.204987 793.553894,334.075500 784.773132,330.239868 C783.528320,329.696136 780.308472,330.578705 780.124268,331.324890 C779.697937,333.051727 780.427429,335.144897 781.005554,336.990082 C781.181946,337.553192 782.366150,337.856537 783.133301,338.169830 C790.353210,341.118958 797.570435,344.075928 804.824707,346.938660 C805.781616,347.316315 806.979248,347.403961 808.001160,347.235840 C810.865051,346.764679 813.703369,346.125092 816.537170,345.486816 C822.009338,344.254303 827.562744,343.273468 832.910095,341.628143 C837.493225,340.217926 842.115051,338.499115 846.223694,336.075836 C853.597351,331.726837 861.146790,327.384857 867.597168,321.845673 C873.684875,316.617859 878.528381,309.917328 883.778137,303.744751 C888.289062,298.440857 892.600891,292.967651 897.294800,286.905457 M423.502808,485.895111 C416.142151,483.458466 410.576111,487.630585 405.231903,491.419678 C403.189758,492.867584 402.444733,496.144928 401.108582,498.588562 C403.818329,498.651520 406.611755,499.169525 409.221588,498.689423 C416.156616,497.413757 423.013672,495.713043 429.899292,494.170441 C433.652405,493.329590 437.400482,492.466431 441.150848,491.613342 C441.161255,490.871429 441.171661,490.129517 441.182068,489.387604 C439.233002,488.904144 437.303741,488.308075 435.330627,487.961578 C431.651398,487.315399 427.946625,486.814331 423.502808,485.895111 z"/>
  <path class="svg-black" fill="#000000" opacity="1.000000" stroke="none" d=" M1147.055908,1269.002930 C1145.763794,1269.549805 1144.237915,1269.852661 1143.131592,1270.702148 C1097.468018,1305.758789 1048.118774,1334.629028 995.512939,1357.854858 C936.049988,1384.107910 874.056946,1401.678711 809.661621,1410.813599 C747.925415,1419.571289 686.197205,1420.237061 624.285889,1412.458496 C532.970459,1400.985596 447.079346,1373.045288 366.748016,1328.278564 C286.095551,1283.332642 216.682526,1225.012573 158.904984,1152.797241 C124.717178,1110.066406 95.913284,1064.024048 72.353706,1014.772705 C47.780102,963.401550 29.779690,909.702942 18.077583,853.896118 C5.518798,794.003784 1.262649,733.436462 4.479960,672.488831 C8.546931,595.445618 24.998411,520.952332 53.606682,449.158783 C73.721703,398.679413 98.987114,350.975494 130.059845,306.482880 C164.523575,257.134796 204.475845,212.673309 250.263611,173.374466 C306.203735,125.362000 368.225342,87.352318 435.872772,58.483658 C491.568512,34.715424 549.460205,18.424368 609.498718,10.044590 C619.727478,8.616925 629.990417,7.433849 641.005737,6.035747 C644.178284,5.637133 646.582581,5.340549 649.221985,5.153447 C650.293518,5.121571 651.130066,4.980216 651.966553,4.838861 C665.440491,4.150102 678.929321,3.661164 692.380005,2.660242 C696.867188,2.326334 696.786072,4.314814 695.836792,7.253220 C695.392822,8.627352 694.499023,9.968107 693.499451,11.033454 C683.486511,21.705208 673.260254,32.180717 663.400574,42.991058 C656.471436,50.588310 650.017944,58.619324 643.349670,66.454605 C638.391052,72.280991 633.516968,78.182320 628.450012,83.913055 C616.268921,97.689819 603.912170,111.312080 591.809631,125.156921 C587.880737,129.651459 584.369080,134.536728 580.931946,139.429688 C573.898254,149.442703 567.445923,159.894073 559.950684,169.540619 C556.074036,174.529953 554.460938,179.546371 554.542542,185.554596 C554.700806,197.215149 554.514587,208.886169 554.953308,220.534698 C555.174194,226.398758 553.398438,231.154053 549.998169,235.742920 C542.103760,246.396866 534.614136,257.354553 526.588074,267.905884 C521.363708,274.773987 515.510071,281.165863 509.893127,287.732391 C502.233795,296.686646 494.782623,305.836487 486.785980,314.480408 C475.951416,326.191956 464.401459,337.249451 453.748871,349.117554 C449.741119,353.582611 447.378021,359.525787 444.276581,364.801819 C442.015808,368.647827 440.132874,372.778107 437.450989,376.301788 C431.301147,384.381897 428.253876,393.812988 425.111389,403.200439 C424.537292,404.915436 425.332092,407.099426 425.537292,409.062531 C426.185455,415.262665 424.262085,419.987457 419.343201,424.342346 C403.025055,438.789398 386.906799,453.483246 371.191467,468.581635 C362.692841,476.746613 354.833252,485.651123 347.358063,494.773254 C344.014221,498.853821 342.381531,504.319885 339.857361,509.096466 C338.713318,511.261383 337.308502,513.290588 335.989136,515.360413 C331.636719,522.188538 327.219269,528.975830 322.922913,535.838989 C319.308350,541.613037 315.890564,547.510254 312.274017,553.283020 C306.252563,562.894714 301.607849,572.924744 298.437927,583.999023 C294.342407,598.306885 288.144043,612.005127 283.064178,626.042908 C281.146851,631.341309 279.365692,636.777649 278.434052,642.304749 C278.002777,644.863220 279.122223,648.212769 280.631561,650.474243 C286.243347,658.882751 292.327606,666.975159 298.198822,675.211609 C303.485138,682.627563 310.245972,687.052490 319.276001,689.861084 C329.360565,692.997803 339.230988,692.169861 349.257874,692.703003 C352.060394,692.852051 354.980316,694.495667 357.471283,696.053467 C363.160614,699.611694 367.742249,704.281433 370.215179,710.729065 C370.495087,711.458801 371.111511,712.416870 371.756500,712.593018 C377.029297,714.032898 382.522003,716.888916 387.613556,716.320496 C399.120117,715.035706 408.504639,719.152222 417.442078,725.163879 C419.611298,726.622925 420.885834,729.569702 422.273285,732.002625 C425.867950,738.305908 428.650696,745.188843 432.964783,750.933838 C437.684113,757.218506 443.095978,763.382568 449.374237,768.016479 C463.786652,778.654053 479.053314,788.126526 493.667480,798.502502 C499.044312,802.320068 504.398315,804.829285 511.064850,804.803955 C516.878296,804.781799 522.694519,805.343445 528.508484,805.665771 C534.158936,805.979004 536.638855,803.199829 534.950623,797.633118 C532.395325,789.206970 529.386536,780.918091 526.544983,772.579590 C526.225952,771.643311 525.595825,770.800110 525.356506,769.851562 C520.530151,750.718811 515.755981,731.572815 510.912781,712.444397 C510.511932,710.861267 509.639069,709.403137 509.083771,707.851746 C508.643433,706.621460 507.658173,704.951233 508.108978,704.139160 C511.264923,698.453979 511.407959,691.429016 516.786560,686.646973 C522.023499,681.990845 527.311890,678.582764 534.628967,680.013367 C539.289551,680.924561 542.719666,678.485291 545.498657,675.364990 C548.117737,672.424255 550.962524,669.435608 553.490723,666.614807 C556.882141,662.830872 563.625732,661.982483 569.001709,660.075378 C571.649292,659.136230 574.461121,658.663818 577.190918,657.950500 C577.980774,657.744080 578.757141,657.172974 579.516785,657.212158 C587.819641,657.640686 596.284180,655.122864 604.340881,659.953613 C608.654480,662.540100 614.032104,663.299011 618.833740,665.133423 C641.612305,673.835999 663.487793,683.718628 680.514771,702.356445 C692.708435,715.703674 704.103149,729.539490 713.070251,745.157288 C721.488708,759.819641 728.874939,775.072388 736.831177,790.003601 C740.337830,796.584351 744.631165,802.786194 747.690735,809.556335 C754.156372,823.863525 757.343384,839.178406 759.943481,854.573669 C761.284424,862.513733 761.519409,870.659607 763.159119,878.523865 C764.389038,884.423279 767.271484,889.958008 769.042969,895.769592 C771.448730,903.661865 774.724792,911.572998 775.318054,919.645813 C775.813354,926.385010 775.960938,933.629333 775.271545,940.164856 C773.960754,952.590698 775.151123,964.859680 774.513733,977.152039 C774.264587,981.957153 771.832886,986.661804 770.296753,991.380127 C769.785889,992.949341 768.470398,994.385315 768.366760,995.938416 C767.318604,1011.657715 757.821777,1023.888550 751.411987,1037.380737 C749.376953,1041.664307 746.282288,1044.849609 741.844666,1047.106934 C738.246826,1048.937134 734.839478,1051.646606 732.166504,1054.686157 C726.391846,1061.253174 711.669189,1064.640869 703.797119,1060.016479 C699.374146,1057.418335 696.207642,1052.775391 692.041077,1049.628174 C681.848694,1041.929443 675.552856,1031.114868 668.440918,1020.952637 C666.177734,1017.718689 664.612000,1014.002747 662.427124,1010.706177 C660.061401,1007.136841 657.166016,1006.447266 653.865845,1009.849182 C652.729492,1011.020630 651.148926,1011.747070 649.872559,1012.799500 C646.840454,1015.299744 644.938538,1018.115234 644.758545,1022.472412 C644.373352,1031.797852 643.013367,1041.005615 637.893738,1049.224487 C636.892090,1050.832642 636.151917,1052.938599 636.185730,1054.798584 C636.330872,1062.772949 637.089111,1070.740967 637.091736,1078.711548 C637.094543,1087.175537 635.883179,1095.672241 636.327087,1104.095215 C636.800415,1113.078125 638.738464,1122.386841 645.922913,1128.403564 C652.149170,1133.617798 652.829712,1139.956665 653.648926,1146.962158 C654.383850,1153.246582 655.027893,1159.796875 657.353577,1165.568359 C659.679382,1171.339966 660.498291,1176.891968 660.235535,1182.908691 C660.162842,1184.574585 660.628601,1186.583496 661.575500,1187.918579 C665.600891,1193.594360 670.207397,1198.872559 674.042908,1204.665894 C687.241760,1224.601562 705.437317,1239.931885 721.742188,1257.006836 C735.711243,1271.635620 750.502197,1285.286865 768.508179,1294.854248 C773.275208,1297.387207 778.547363,1299.749634 783.812317,1300.417236 C798.977905,1302.340088 814.235229,1304.047241 829.499390,1304.558350 C849.307495,1305.221680 869.157898,1304.725342 888.987549,1304.504272 C891.220398,1304.479370 895.237732,1306.063232 895.411438,1301.984985 C895.588562,1297.827148 897.543701,1292.829468 892.396301,1289.791016 C889.976379,1288.362427 887.549805,1286.900635 885.329773,1285.189819 C882.619202,1283.100952 882.592224,1280.191650 885.358948,1278.597900 C889.418762,1276.259277 893.907104,1274.599731 898.331848,1272.974854 C905.119202,1270.482422 912.347839,1268.952637 918.774170,1265.771973 C928.555603,1260.930786 937.591064,1254.586426 947.356140,1249.706421 C955.847290,1245.463135 962.958374,1239.876465 969.545105,1233.127930 C978.833374,1223.611572 988.448914,1214.371948 998.434753,1205.594360 C1004.767883,1200.027466 1002.340271,1193.050171 1002.647034,1186.600464 C1002.706787,1185.344360 998.514709,1183.467285 996.031006,1182.605957 C992.207947,1181.280518 988.166077,1180.585938 984.217102,1179.623657 C984.029114,1179.137329 983.841187,1178.650879 983.653198,1178.164429 C987.495544,1174.944092 991.319458,1171.701172 995.189941,1168.514893 C996.590088,1167.362183 998.536316,1166.636719 999.489990,1165.217041 C1004.748596,1157.387573 1013.423462,1154.195190 1020.692932,1149.089966 C1023.481323,1147.131836 1025.895142,1144.641724 1028.489746,1142.405518 C1029.087280,1141.890381 1029.661499,1141.291016 1030.354980,1140.953369 C1036.822998,1137.806274 1043.358765,1134.795410 1049.787109,1131.570068 C1055.715576,1128.595581 1061.592407,1125.507080 1067.391479,1122.287842 C1076.535156,1117.211670 1085.360718,1111.497803 1094.763916,1106.974731 C1102.309937,1103.344971 1110.395142,1100.661011 1118.474976,1098.389771 C1122.492188,1097.260742 1127.035645,1098.022095 1131.339966,1097.891602 C1140.746948,1097.606567 1150.187988,1096.668701 1159.549927,1097.183594 C1168.187988,1097.658569 1174.183960,1103.976929 1179.778564,1109.819824 C1187.067749,1117.432495 1183.970825,1126.663574 1182.356689,1135.384766 C1180.431885,1145.784546 1178.183105,1156.127930 1175.874023,1166.450684 C1175.354980,1168.771362 1174.159302,1170.990723 1173.004517,1173.109009 C1170.258667,1178.146118 1167.170166,1183.003540 1164.578369,1188.114990 C1163.098145,1191.034180 1161.948975,1194.242554 1161.369141,1197.450562 C1161.034180,1199.304077 1161.724365,1201.672241 1162.757324,1203.297607 C1163.237183,1204.052490 1165.743042,1203.993652 1167.143433,1203.614136 C1177.420898,1200.828735 1187.727905,1198.112183 1197.875488,1194.899536 C1209.431641,1191.241089 1220.820190,1187.055664 1232.314209,1183.196533 C1233.901001,1182.663696 1236.313354,1179.844238 1237.032227,1184.582153 C1232.815796,1189.459351 1228.539429,1193.956543 1223.774780,1198.727783 C1215.110840,1206.974365 1206.931396,1214.942871 1198.787842,1222.948120 C1198.632080,1223.101318 1198.901855,1223.687134 1198.973145,1224.071167 C1198.973145,1224.071167 1199.018921,1224.005737 1198.625244,1223.787109 C1198.140137,1224.073364 1198.048706,1224.578003 1197.957275,1225.082764 C1197.957275,1225.082764 1198.011475,1225.011841 1197.619629,1224.784668 C1197.137817,1225.065430 1197.047852,1225.573608 1196.958008,1226.081665 C1196.958008,1226.081665 1197.009155,1226.021729 1196.778687,1225.684814 C1192.688232,1229.256592 1188.828125,1233.165283 1184.968140,1237.073853 C1184.968140,1237.073853 1185.017212,1237.005981 1184.623779,1236.811523 C1184.139648,1237.105347 1184.048828,1237.593628 1183.958008,1238.082031 C1183.958130,1238.082031 1184.011475,1238.011475 1183.619385,1237.783203 C1183.137695,1238.063599 1183.048096,1238.572266 1182.958374,1239.080811 C1182.958374,1239.080811 1183.009155,1239.021118 1182.773682,1238.685303 C1180.348145,1240.590942 1178.158081,1242.832397 1175.968018,1245.073730 C1175.968018,1245.073730 1176.016846,1245.006226 1175.623291,1244.801392 C1175.139160,1245.091675 1175.048584,1245.586792 1174.958008,1246.081909 C1174.958008,1246.081909 1175.009766,1246.021118 1174.768433,1245.690063 C1172.673706,1247.264160 1170.820312,1249.169312 1168.966797,1251.074463 C1168.966797,1251.074463 1169.016602,1251.006592 1168.623779,1250.805908 C1168.140015,1251.097290 1168.049194,1251.589233 1167.958374,1252.081299 C1167.958374,1252.081299 1168.009521,1252.021118 1167.763672,1251.678711 C1166.002319,1252.914673 1164.486938,1254.493286 1162.971558,1256.071777 C1162.971558,1256.071777 1163.016357,1256.016235 1162.773804,1255.689453 C1159.010620,1258.599487 1155.489990,1261.836304 1151.969360,1265.073120 C1151.969360,1265.073120 1152.015991,1265.016357 1151.763550,1264.689819 C1149.996216,1265.933716 1148.481323,1267.504150 1146.966553,1269.074463 C1146.966431,1269.074463 1147.017822,1269.014038 1147.055908,1269.002930 z"/>
  <path fill="#ffffff" opacity="1.000000" stroke="none" d=" M897.147766,287.237396 C892.600891,292.967651 888.289062,298.440857 883.778137,303.744751 C878.528381,309.917328 873.684875,316.617859 867.597168,321.845673 C861.146790,327.384857 853.597351,331.726837 846.223694,336.075836 C842.115051,338.499115 837.493225,340.217926 832.910095,341.628143 C827.562744,343.273468 822.009338,344.254303 816.537170,345.486816 C813.703369,346.125092 810.865051,346.764679 808.001160,347.235840 C806.979248,347.403961 805.781616,347.316315 804.824707,346.938660 C797.570435,344.075928 790.353210,341.118958 783.133301,338.169830 C782.366150,337.856537 781.181946,337.553192 781.005554,336.990082 C780.427429,335.144897 779.697937,333.051727 780.124268,331.324890 C780.308472,330.578705 783.528320,329.696136 784.773132,330.239868 C793.553894,334.075500 802.478027,337.204987 812.211609,335.917542 C827.300476,333.921753 842.067932,331.085541 853.352722,319.341766 C856.640137,315.920715 861.687561,313.932190 864.282959,310.156189 C870.656921,300.882446 876.077026,290.952728 881.868958,281.279755 C882.378967,280.428009 883.146545,279.548737 883.212891,278.639801 C884.467590,261.440643 893.280334,245.838638 892.217163,227.848831 C891.208801,210.786499 882.955017,200.410370 868.985779,192.954559 C865.624084,191.160309 862.234985,189.244156 858.627686,188.133469 C855.253601,187.094604 851.554077,187.160614 848.032227,186.543686 C841.570862,185.411896 835.166626,183.917404 828.680725,182.970688 C819.106934,181.573273 810.422729,183.128159 802.605286,189.754684 C784.233887,205.327209 765.484253,220.453613 746.884644,235.756805 C746.499939,236.073303 746.104980,236.395081 745.668945,236.628647 C738.422668,240.510025 731.205444,244.448868 723.885315,248.186005 C722.486023,248.900406 720.612854,249.204987 719.072632,248.964935 C717.783325,248.764008 716.061340,247.719666 715.645020,246.625015 C715.278870,245.662552 716.099731,243.691696 717.024841,242.907104 C719.156250,241.099396 721.525513,239.431015 724.054504,238.258911 C732.377502,234.401581 739.221375,228.731979 745.225891,221.906815 C746.316406,220.667313 747.597595,219.552841 748.936401,218.581284 C761.123291,209.737457 773.613037,201.285278 785.481018,192.034500 C799.139282,181.388351 814.474976,173.897964 829.976074,166.603836 C831.448303,165.911072 833.165405,165.416702 834.776672,165.394333 C844.594971,165.258026 854.415649,165.254547 864.235168,165.294159 C865.535522,165.299423 867.057617,165.454361 868.099426,166.125870 C881.905701,175.025391 896.116516,183.621826 904.944214,198.100693 C910.375732,207.009247 913.351746,216.802200 912.866821,227.540710 C912.468994,236.348511 912.683411,245.188019 912.764893,254.012192 C912.832642,261.345703 911.112366,267.945160 906.393005,273.802399 C903.065308,277.932434 900.307251,282.521423 897.147766,287.237396 z"/>
  <path fill="#ffffff" opacity="1.000000" stroke="none" d=" M423.877655,486.073975 C427.946625,486.814331 431.651398,487.315399 435.330627,487.961578 C437.303741,488.308075 439.233002,488.904144 441.182068,489.387604 C441.171661,490.129517 441.161255,490.871429 441.150848,491.613342 C437.400482,492.466431 433.652405,493.329590 429.899292,494.170441 C423.013672,495.713043 416.156616,497.413757 409.221588,498.689423 C406.611755,499.169525 403.818329,498.651520 401.108582,498.588562 C402.444733,496.144928 403.189758,492.867584 405.231903,491.419678 C410.576111,487.630585 416.142151,483.458466 423.877655,486.073975 z"/>
</svg>